<svg width="45" height="45" viewBox="0 0 45 45" fill="none" xmlns="http://www.w3.org/2000/svg">
<path d="M20.0334 9.8501C14.5167 9.8501 10.0334 14.3334 10.0334 19.8501V24.6668C10.0334 25.6834 9.60002 27.2334 9.08336 28.1001L7.16669 31.2834C5.98336 33.2501 6.80002 35.4334 8.96669 36.1668C16.15 38.5668 23.9 38.5668 31.0834 36.1668C33.1 35.5001 33.9834 33.1168 32.8834 31.2834L30.9667 28.1001C30.4667 27.2334 30.0334 25.6834 30.0334 24.6668V19.8501C30.0334 14.3501 25.5334 9.8501 20.0334 9.8501Z" stroke="#F0F7F7" stroke-width="1.5" stroke-miterlimit="10" stroke-linecap="round"/>
<path d="M23.1166 10.3334C22.6 10.1834 22.0666 10.0667 21.5166 10.0001C19.9166 9.80007 18.3833 9.91673 16.95 10.3334C17.4333 9.10007 18.6333 8.2334 20.0333 8.2334C21.4333 8.2334 22.6333 9.10007 23.1166 10.3334Z" stroke="#F0F7F7" stroke-width="1.5" stroke-miterlimit="10" stroke-linecap="round" stroke-linejoin="round"/>
<path d="M25.0333 36.7666C25.0333 39.5166 22.7833 41.7666 20.0333 41.7666C18.6667 41.7666 17.4 41.1999 16.5 40.2999C15.6 39.3999 15.0333 38.1333 15.0333 36.7666" stroke="#F0F7F7" stroke-width="1.5" stroke-miterlimit="10"/>
<circle cx="32.5" cy="12.5" r="12.5" fill="#E81A4B"/>
<path d="M33.68 18H32.304V10.016C32.304 9.70667 32.304 9.44533 32.304 9.232C32.3147 9.01867 32.3253 8.82133 32.336 8.64C32.3467 8.448 32.3573 8.25067 32.368 8.048C32.1973 8.21867 32.0427 8.36267 31.904 8.48C31.7653 8.59733 31.5893 8.74667 31.376 8.928L30.16 9.92L29.424 8.976L32.512 6.576H33.68V18Z" fill="white"/>
</svg>
