<svg width="41" height="40" viewBox="0 0 41 40" fill="none" xmlns="http://www.w3.org/2000/svg">
<path d="M31.2833 28.0502L31.9333 33.3168C32.1 34.7001 30.6166 35.6668 29.4333 34.9501L22.4499 30.8001C21.6833 30.8001 20.9333 30.7502 20.2 30.6502C21.4333 29.2002 22.1666 27.3668 22.1666 25.3835C22.1666 20.6501 18.0666 16.8169 12.9999 16.8169C11.0666 16.8169 9.28329 17.3668 7.79996 18.3335C7.74996 17.9168 7.73328 17.5001 7.73328 17.0668C7.73328 9.48348 14.3166 3.3335 22.4499 3.3335C30.5833 3.3335 37.1666 9.48348 37.1666 17.0668C37.1666 21.5668 34.85 25.5502 31.2833 28.0502Z" stroke="#F0F7F7" stroke-width="1.5" stroke-linecap="round" stroke-linejoin="round"/>
<path d="M22.1667 25.3835C22.1667 27.3668 21.4334 29.2002 20.2001 30.6502C18.5501 32.6502 15.9334 33.9335 13 33.9335L8.65004 36.5168C7.91671 36.9668 6.98337 36.3502 7.08337 35.5002L7.50004 32.2169C5.2667 30.6669 3.83337 28.1835 3.83337 25.3835C3.83337 22.4502 5.40005 19.8668 7.80005 18.3335C9.28338 17.3668 11.0667 16.8169 13 16.8169C18.0667 16.8169 22.1667 20.6502 22.1667 25.3835Z" stroke="#F0F7F7" stroke-width="1.5" stroke-linecap="round" stroke-linejoin="round"/>
</svg>
