<svg width="41" height="40" viewBox="0 0 41 40" fill="none" xmlns="http://www.w3.org/2000/svg">
<path d="M20.7439 16.6668C20.6017 16.6465 20.4187 16.6465 20.2561 16.6668C16.6789 16.5447 13.8334 13.6134 13.8334 10.0103C13.8334 6.32586 16.8009 3.3335 20.5 3.3335C24.1789 3.3335 27.1667 6.32586 27.1667 10.0103C27.1464 13.6134 24.3212 16.5447 20.7439 16.6668Z" stroke="#F0F7F7" stroke-width="1.5" stroke-linecap="round" stroke-linejoin="round"/>
<path d="M35.5 31.3457C31.5386 34.6562 26.2864 36.6668 20.5 36.6668C14.7137 36.6668 9.46142 34.6562 5.5 31.3457C5.72255 29.4366 7.05786 27.5681 9.43917 26.1058C15.5371 22.4094 25.5074 22.4094 31.5608 26.1058C33.9421 27.5681 35.2774 29.4366 35.5 31.3457Z" stroke="#F0F7F7" stroke-width="1.5" stroke-linecap="round" stroke-linejoin="round"/>
</svg>
