<svg width="24" height="24" viewBox="0 0 24 24" fill="none" xmlns="http://www.w3.org/2000/svg">
<path d="M12.1463 10C12.061 9.98779 11.9512 9.98779 11.8537 10C9.70732 9.92672 8 8.16794 8 6.00611C8 3.79542 9.78049 2 12 2C14.2073 2 16 3.79542 16 6.00611C15.9878 8.16794 14.2927 9.92672 12.1463 10Z" stroke="#101010" stroke-width="1.5" stroke-linecap="round" stroke-linejoin="round"/>
<path d="M21 18.8073C18.6231 20.7936 15.4718 22 12 22C8.52819 22 5.37685 20.7936 3 18.8073C3.13353 17.6618 3.93472 16.5407 5.3635 15.6634C9.02226 13.4455 15.0045 13.4455 18.6365 15.6634C20.0653 16.5407 20.8665 17.6618 21 18.8073Z" stroke="#101010" stroke-width="1.5" stroke-linecap="round" stroke-linejoin="round"/>
</svg>
