<svg width="41" height="40" viewBox="0 0 41 40" fill="none" xmlns="http://www.w3.org/2000/svg">
<path d="M20.5 25C23.2614 25 25.5 22.7614 25.5 20C25.5 17.2386 23.2614 15 20.5 15C17.7386 15 15.5 17.2386 15.5 20C15.5 22.7614 17.7386 25 20.5 25Z" stroke="#F0F7F7" stroke-width="1.5" stroke-miterlimit="10" stroke-linecap="round" stroke-linejoin="round"/>
<path d="M3.83337 21.4667V18.5334C3.83337 16.8001 5.25004 15.3667 7.00004 15.3667C10.0167 15.3667 11.25 13.2334 9.73337 10.6167C8.86671 9.11672 9.38337 7.16672 10.9 6.30006L13.7834 4.65006C15.1 3.86672 16.8 4.33339 17.5834 5.65006L17.7667 5.96672C19.2667 8.58339 21.7334 8.58339 23.25 5.96672L23.4334 5.65006C24.2167 4.33339 25.9167 3.86672 27.2334 4.65006L30.1167 6.30006C31.6334 7.16672 32.15 9.11672 31.2834 10.6167C29.7667 13.2334 31 15.3667 34.0167 15.3667C35.75 15.3667 37.1834 16.7834 37.1834 18.5334V21.4667C37.1834 23.2001 35.7667 24.6334 34.0167 24.6334C31 24.6334 29.7667 26.7667 31.2834 29.3834C32.15 30.9001 31.6334 32.8334 30.1167 33.7001L27.2334 35.3501C25.9167 36.1334 24.2167 35.6667 23.4334 34.3501L23.25 34.0334C21.75 31.4167 19.2834 31.4167 17.7667 34.0334L17.5834 34.3501C16.8 35.6667 15.1 36.1334 13.7834 35.3501L10.9 33.7001C9.38337 32.8334 8.86671 30.8834 9.73337 29.3834C11.25 26.7667 10.0167 24.6334 7.00004 24.6334C5.25004 24.6334 3.83337 23.2001 3.83337 21.4667Z" stroke="#F0F7F7" stroke-width="1.5" stroke-miterlimit="10" stroke-linecap="round" stroke-linejoin="round"/>
</svg>
