<svg width="67" height="71" viewBox="0 0 67 71" fill="none" xmlns="http://www.w3.org/2000/svg">
<path d="M33.5 25C36.2614 25 38.5 22.7614 38.5 20C38.5 17.2386 36.2614 15 33.5 15C30.7386 15 28.5 17.2386 28.5 20C28.5 22.7614 30.7386 25 33.5 25Z" stroke="#F0F7F7" stroke-width="1.5" stroke-miterlimit="10" stroke-linecap="round" stroke-linejoin="round"/>
<path d="M16.8334 21.4667V18.5334C16.8334 16.8001 18.25 15.3667 20 15.3667C23.0167 15.3667 24.25 13.2334 22.7334 10.6167C21.8667 9.11672 22.3834 7.16672 23.9 6.30006L26.7834 4.65006C28.1 3.86672 29.8 4.33339 30.5834 5.65006L30.7667 5.96672C32.2667 8.58339 34.7334 8.58339 36.25 5.96672L36.4334 5.65006C37.2167 4.33339 38.9167 3.86672 40.2334 4.65006L43.1167 6.30006C44.6334 7.16672 45.15 9.11672 44.2834 10.6167C42.7667 13.2334 44 15.3667 47.0167 15.3667C48.75 15.3667 50.1834 16.7834 50.1834 18.5334V21.4667C50.1834 23.2001 48.7667 24.6334 47.0167 24.6334C44 24.6334 42.7667 26.7667 44.2834 29.3834C45.15 30.9001 44.6334 32.8334 43.1167 33.7001L40.2334 35.3501C38.9167 36.1334 37.2167 35.6667 36.4334 34.3501L36.25 34.0334C34.75 31.4167 32.2834 31.4167 30.7667 34.0334L30.5834 34.3501C29.8 35.6667 28.1 36.1334 26.7834 35.3501L23.9 33.7001C22.3834 32.8334 21.8667 30.8834 22.7334 29.3834C24.25 26.7667 23.0167 24.6334 20 24.6334C18.25 24.6334 16.8334 23.2001 16.8334 21.4667Z" stroke="#F0F7F7" stroke-width="1.5" stroke-miterlimit="10" stroke-linecap="round" stroke-linejoin="round"/>
<path d="M4.81445 63.0664C4.55404 63.737 4.15365 64.2285 3.61328 64.541C3.07292 64.847 2.28841 65 1.25977 65H0.595703V62.6367H0.761719C1.21094 62.6367 1.56901 62.5521 1.83594 62.3828C2.09635 62.2135 2.2819 61.9564 2.39258 61.6113C2.50326 61.2598 2.55859 60.7292 2.55859 60.0195V55.2441H0.703125V52.8809H7.5C9.375 52.8809 10.7194 53.278 11.5332 54.0723C12.3535 54.86 12.7637 56.1686 12.7637 57.998V65H10.1172V58.0371C10.1172 56.9954 9.9056 56.2695 9.48242 55.8594C9.05924 55.4492 8.34635 55.2441 7.34375 55.2441H5.19531V60.3613C5.19531 61.4876 5.06836 62.3893 4.81445 63.0664ZM18.6914 52.8809V65H16.0547V52.8809H18.6914ZM30.3125 57.9785V65H27.666V57.959C27.666 56.9499 27.4479 56.2467 27.0117 55.8496C26.582 55.446 25.8561 55.2441 24.834 55.2441H20.7715V52.8809H24.9902C26.2728 52.8809 27.3014 53.0534 28.0762 53.3984C28.8574 53.737 29.4238 54.2806 29.7754 55.0293C30.1335 55.7715 30.3125 56.7546 30.3125 57.9785ZM41.5137 55.2441V65H38.877V55.2441H32.3145V52.8809H43.0176V55.2441H41.5137ZM46.7969 52.8809C47.3763 52.8809 47.8581 52.9264 48.2422 53.0176C48.6328 53.1087 48.9583 53.2682 49.2188 53.4961C49.4857 53.7174 49.7168 54.0234 49.9121 54.4141C50.0618 54.707 50.2181 55.1172 50.3809 55.6445C50.5436 56.1654 50.7161 56.8034 50.8984 57.5586L52.6172 65H49.9902L49.0137 60.6445C48.5384 60.7682 48.2031 60.9342 48.0078 61.1426C47.8125 61.3509 47.6465 61.6797 47.5098 62.1289C47.4837 62.2201 47.4414 62.3796 47.3828 62.6074C47.3307 62.8288 47.2656 63.1152 47.1875 63.4668L46.8555 65H44.1699L44.5703 63.2422C44.6875 62.7018 44.8047 62.2363 44.9219 61.8457C45.0391 61.4486 45.1595 61.123 45.2832 60.8691C45.5241 60.3613 45.8333 59.9577 46.2109 59.6582C46.5951 59.3522 47.1224 59.0983 47.793 58.8965L48.5742 58.6621C48.4831 58.2259 48.3919 57.8353 48.3008 57.4902C48.2096 57.1452 48.125 56.849 48.0469 56.6016C47.8841 56.1003 47.6953 55.7487 47.4805 55.5469C47.2656 55.3451 46.9173 55.2441 46.4355 55.2441H45.1172V52.8809H46.7969ZM65.0684 57.9785V65H62.4219V57.959C62.4219 56.9629 62.2103 56.263 61.7871 55.8594C61.3639 55.4492 60.6283 55.2441 59.5801 55.2441H54.6289V52.8809H59.7461C61.0286 52.8809 62.0573 53.0534 62.832 53.3984C63.6133 53.7435 64.1797 54.2904 64.5312 55.0391C64.8893 55.7812 65.0684 56.7611 65.0684 57.9785ZM57.4609 57.6367V65H54.8242V57.6367H57.4609Z" fill="#F0F7F7"/>
</svg>
