<svg width="109" height="71" viewBox="0 0 109 71" fill="none" xmlns="http://www.w3.org/2000/svg">
<path d="M54.7439 16.6668C54.6017 16.6465 54.4187 16.6465 54.2561 16.6668C50.6789 16.5447 47.8334 13.6134 47.8334 10.0103C47.8334 6.32586 50.8009 3.3335 54.5 3.3335C58.1789 3.3335 61.1667 6.32586 61.1667 10.0103C61.1464 13.6134 58.3212 16.5447 54.7439 16.6668Z" stroke="#F0F7F7" stroke-width="1.5" stroke-linecap="round" stroke-linejoin="round"/>
<path d="M69.5 31.3457C65.5386 34.6562 60.2864 36.6668 54.5 36.6668C48.7137 36.6668 43.4614 34.6562 39.5 31.3457C39.7226 29.4366 41.0579 27.5681 43.4392 26.1058C49.5371 22.4094 59.5074 22.4094 65.5608 26.1058C67.9421 27.5681 69.2774 29.4366 69.5 31.3457Z" stroke="#F0F7F7" stroke-width="1.5" stroke-linecap="round" stroke-linejoin="round"/>
<path d="M4.33594 52.8809V59.3164H1.69922V52.8809H4.33594ZM17.9785 63.7988C17.4447 64.0983 16.7871 64.3457 16.0059 64.541C15.2311 64.7298 14.2643 64.8698 13.1055 64.9609C11.9531 65.0521 10.5436 65.0977 8.87695 65.0977L6.5918 52.8809H9.35547L10.4199 58.7207L11.1328 58.584C11.5755 58.4993 11.901 58.3561 12.1094 58.1543C12.3242 57.946 12.487 57.6367 12.5977 57.2266C12.6497 57.0247 12.6986 56.7448 12.7441 56.3867C12.7962 56.0221 12.8451 55.5794 12.8906 55.0586L13.0371 52.8809H15.7324L15.4395 56.2207C15.4004 56.6764 15.3451 57.0866 15.2734 57.4512C15.2018 57.8158 15.1107 58.1315 15 58.3984C14.7852 58.9323 14.4824 59.349 14.0918 59.6484C13.7077 59.9479 13.0957 60.1986 12.2559 60.4004L10.791 60.7422L11.1914 62.7441H11.4258C12.2396 62.7441 12.959 62.7116 13.584 62.6465C14.2155 62.5749 14.7526 62.4674 15.1953 62.3242C15.7878 62.1419 16.276 61.888 16.6602 61.5625C17.0443 61.2305 17.347 60.791 17.5684 60.2441C17.7897 59.6908 17.946 58.9909 18.0371 58.1445L18.6523 52.8809H21.377L20.752 58.0762C20.6217 59.196 20.4395 60.1237 20.2051 60.8594C19.9772 61.5951 19.681 62.194 19.3164 62.6562C18.9583 63.112 18.5124 63.4928 17.9785 63.7988ZM26.4844 52.8809V59.3164H23.8477V52.8809H26.4844ZM32.168 61.4648L31.5625 65H28.8281L29.6484 60.957C29.8828 59.8372 30.0977 59.0397 30.293 58.5645C30.4883 58.0827 30.7292 57.7018 31.0156 57.4219C31.3086 57.1354 31.7122 56.8815 32.2266 56.6602L29.4043 52.8809H32.6074L36.5625 58.3594C36.9727 57.9883 37.2852 57.5521 37.5 57.0508C37.7148 56.5495 37.8678 55.8724 37.959 55.0195L38.1641 52.8809H40.8594L40.625 55.1953C40.5534 55.8529 40.4232 56.4355 40.2344 56.9434C40.1042 57.2884 39.9447 57.6139 39.7559 57.9199C39.5671 58.2194 39.3197 58.5384 39.0137 58.877C38.7142 59.209 38.3171 59.5964 37.8223 60.0391L41.4648 65H38.2812L33.4082 58.2422C33.0632 58.444 32.8158 58.737 32.666 59.1211C32.5944 59.3164 32.5163 59.6094 32.4316 60C32.347 60.3906 32.2591 60.8789 32.168 61.4648ZM48.916 62.7441C50.5046 62.2233 51.7871 61.5658 52.7637 60.7715C53.4408 60.2311 53.9583 59.6419 54.3164 59.0039C54.6745 58.3594 54.8535 57.6855 54.8535 56.9824C54.8535 55.8236 54.1276 55.2441 52.6758 55.2441H47.7148V48.7402H50.4102V52.8809H53.1152C56.0449 52.8809 57.5098 54.1602 57.5098 56.7188C57.5098 57.9427 57.2201 59.0885 56.6406 60.1562C56.0677 61.2174 55.2474 62.1647 54.1797 62.998C52.7734 64.0918 51.0189 64.9512 48.916 65.5762V62.7441ZM62.8125 52.8809V59.3164H60.1758V52.8809H62.8125ZM73.7891 58.3398C73.7891 57.2982 73.5514 56.5234 73.0762 56.0156C72.6009 55.5013 71.8522 55.2441 70.8301 55.2441H68.5742V57.8613H70.9473V60.2246H65.9082V52.8809H70.8496C72.7637 52.8809 74.1764 53.3268 75.0879 54.2188C75.9993 55.1107 76.4551 56.4974 76.4551 58.3789V59.1797C76.4551 63.0599 74.4596 65 70.4688 65H66.0156V62.6367H70.4102C71.5365 62.6367 72.3796 62.347 72.9395 61.7676C73.5059 61.1882 73.7891 60.319 73.7891 59.1602V58.3398ZM81.8945 52.8809V65H79.2578V52.8809H81.8945ZM93.5156 57.9785V65H90.8691V57.959C90.8691 56.9499 90.651 56.2467 90.2148 55.8496C89.7852 55.446 89.0592 55.2441 88.0371 55.2441H83.9746V52.8809H88.1934C89.4759 52.8809 90.5046 53.0534 91.2793 53.3984C92.0605 53.737 92.627 54.2806 92.9785 55.0293C93.3366 55.7715 93.5156 56.7546 93.5156 57.9785ZM104.395 58.3398C104.395 57.2982 104.157 56.5234 103.682 56.0156C103.206 55.5013 102.458 55.2441 101.436 55.2441H99.1797V57.8613H101.553V60.2246H96.5137V52.8809H101.455C103.369 52.8809 104.782 53.3268 105.693 54.2188C106.605 55.1107 107.061 56.4974 107.061 58.3789V59.1797C107.061 63.0599 105.065 65 101.074 65H96.6211V62.6367H101.016C102.142 62.6367 102.985 62.347 103.545 61.7676C104.111 61.1882 104.395 60.319 104.395 59.1602V58.3398Z" fill="#F0F7F7"/>
</svg>
