<svg width="75" height="76" viewBox="0 0 75 76" fill="none" xmlns="http://www.w3.org/2000/svg">
<path d="M35.0334 9.8501C29.5167 9.8501 25.0334 14.3334 25.0334 19.8501V24.6668C25.0334 25.6834 24.6 27.2334 24.0834 28.1001L22.1667 31.2834C20.9834 33.2501 21.8 35.4334 23.9667 36.1668C31.15 38.5668 38.9 38.5668 46.0834 36.1668C48.1 35.5001 48.9834 33.1168 47.8834 31.2834L45.9667 28.1001C45.4667 27.2334 45.0334 25.6834 45.0334 24.6668V19.8501C45.0334 14.3501 40.5334 9.8501 35.0334 9.8501Z" stroke="#F0F7F7" stroke-width="1.5" stroke-miterlimit="10" stroke-linecap="round"/>
<path d="M38.1166 10.3334C37.6 10.1834 37.0666 10.0667 36.5166 10.0001C34.9166 9.80007 33.3833 9.91673 31.95 10.3334C32.4333 9.10007 33.6333 8.2334 35.0333 8.2334C36.4333 8.2334 37.6333 9.10007 38.1166 10.3334Z" stroke="#F0F7F7" stroke-width="1.5" stroke-miterlimit="10" stroke-linecap="round" stroke-linejoin="round"/>
<path d="M40.0333 36.7666C40.0333 39.5166 37.7833 41.7666 35.0333 41.7666C33.6667 41.7666 32.4 41.1999 31.5 40.2999C30.6 39.3999 30.0333 38.1333 30.0333 36.7666" stroke="#F0F7F7" stroke-width="1.5" stroke-miterlimit="10"/>
<circle cx="47.5" cy="12.5" r="12.5" fill="#E81A4B"/>
<path d="M48.68 18H47.304V10.016C47.304 9.70667 47.304 9.44533 47.304 9.232C47.3147 9.01867 47.3253 8.82133 47.336 8.64C47.3467 8.448 47.3573 8.25067 47.368 8.048C47.1973 8.21867 47.0427 8.36267 46.904 8.48C46.7653 8.59733 46.5893 8.74667 46.376 8.928L45.16 9.92L44.424 8.976L47.512 6.576H48.68V18Z" fill="white"/>
<path d="M5.31445 68.0664C5.05404 68.737 4.65365 69.2285 4.11328 69.541C3.57292 69.847 2.78841 70 1.75977 70H1.0957V67.6367H1.26172C1.71094 67.6367 2.06901 67.5521 2.33594 67.3828C2.59635 67.2135 2.7819 66.9564 2.89258 66.6113C3.00326 66.2598 3.05859 65.7292 3.05859 65.0195V60.2441H1.20312V57.8809H8C9.875 57.8809 11.2194 58.278 12.0332 59.0723C12.8535 59.86 13.2637 61.1686 13.2637 62.998V70H10.6172V63.0371C10.6172 61.9954 10.4056 61.2695 9.98242 60.8594C9.55924 60.4492 8.84635 60.2441 7.84375 60.2441H5.69531V65.3613C5.69531 66.4876 5.56836 67.3893 5.31445 68.0664ZM19.1914 57.8809V70H16.5547V57.8809H19.1914ZM24.875 66.4648L24.2695 70H21.5352L22.3555 65.957C22.5898 64.8372 22.8047 64.0397 23 63.5645C23.1953 63.0827 23.4362 62.7018 23.7227 62.4219C24.0156 62.1354 24.4193 61.8815 24.9336 61.6602L22.1113 57.8809H25.3145L29.2695 63.3594C29.6797 62.9883 29.9922 62.5521 30.207 62.0508C30.4219 61.5495 30.5749 60.8724 30.666 60.0195L30.8711 57.8809H33.5664L33.332 60.1953C33.2604 60.8529 33.1302 61.4355 32.9414 61.9434C32.8112 62.2884 32.6517 62.6139 32.4629 62.9199C32.2741 63.2194 32.0267 63.5384 31.7207 63.877C31.4212 64.209 31.0241 64.5964 30.5293 65.0391L34.1719 70H30.9883L26.1152 63.2422C25.7702 63.444 25.5228 63.737 25.373 64.1211C25.3014 64.3164 25.2233 64.6094 25.1387 65C25.054 65.3906 24.9661 65.8789 24.875 66.4648ZM44.4648 62.9785V70H41.8184V62.959C41.8184 61.9499 41.6003 61.2467 41.1641 60.8496C40.7344 60.446 40.0085 60.2441 38.9863 60.2441H34.9238V57.8809H39.1426C40.4251 57.8809 41.4538 58.0534 42.2285 58.3984C43.0098 58.737 43.5762 59.2806 43.9277 60.0293C44.2858 60.7715 44.4648 61.7546 44.4648 62.9785ZM50.8809 68.0664C50.6204 68.737 50.2201 69.2285 49.6797 69.541C49.1393 69.847 48.3548 70 47.3262 70H46.6621V67.6367H46.8281C47.2773 67.6367 47.6354 67.5521 47.9023 67.3828C48.1628 67.2135 48.3483 66.9564 48.459 66.6113C48.5697 66.2598 48.625 65.7292 48.625 65.0195V60.2441H46.7695V57.8809H53.5664C55.4414 57.8809 56.7858 58.278 57.5996 59.0723C58.4199 59.86 58.8301 61.1686 58.8301 62.998V70H56.1836V63.0371C56.1836 61.9954 55.972 61.2695 55.5488 60.8594C55.1257 60.4492 54.4128 60.2441 53.4102 60.2441H51.2617V65.3613C51.2617 66.4876 51.1348 67.3893 50.8809 68.0664ZM72.3457 62.9785V70H69.6992V62.959C69.6992 61.9629 69.4876 61.263 69.0645 60.8594C68.6413 60.4492 67.9056 60.2441 66.8574 60.2441H61.9062V57.8809H67.0234C68.306 57.8809 69.3346 58.0534 70.1094 58.3984C70.8906 58.7435 71.457 59.2904 71.8086 60.0391C72.1667 60.7812 72.3457 61.7611 72.3457 62.9785ZM64.7383 62.6367V70H62.1016V62.6367H64.7383Z" fill="#F0F7F7"/>
</svg>
