<svg width="97" height="71" viewBox="0 0 97 71" fill="none" xmlns="http://www.w3.org/2000/svg">
<path d="M59.2833 28.0502L59.9333 33.3168C60.1 34.7001 58.6166 35.6668 57.4333 34.9501L50.4499 30.8001C49.6833 30.8001 48.9333 30.7502 48.2 30.6502C49.4333 29.2002 50.1666 27.3668 50.1666 25.3835C50.1666 20.6501 46.0666 16.8169 40.9999 16.8169C39.0666 16.8169 37.2833 17.3668 35.8 18.3335C35.75 17.9168 35.7333 17.5001 35.7333 17.0668C35.7333 9.48348 42.3166 3.3335 50.4499 3.3335C58.5833 3.3335 65.1666 9.48348 65.1666 17.0668C65.1666 21.5668 62.85 25.5502 59.2833 28.0502Z" stroke="#F0F7F7" stroke-width="1.5" stroke-linecap="round" stroke-linejoin="round"/>
<path d="M50.1667 25.3835C50.1667 27.3668 49.4334 29.2002 48.2001 30.6502C46.5501 32.6502 43.9334 33.9335 41 33.9335L36.65 36.5168C35.9167 36.9668 34.9834 36.3502 35.0834 35.5002L35.5 32.2169C33.2667 30.6669 31.8334 28.1835 31.8334 25.3835C31.8334 22.4502 33.4 19.8668 35.8 18.3335C37.2834 17.3668 39.0667 16.8169 41 16.8169C46.0667 16.8169 50.1667 20.6502 50.1667 25.3835Z" stroke="#F0F7F7" stroke-width="1.5" stroke-linecap="round" stroke-linejoin="round"/>
<path d="M4.83594 52.8809V65H2.19922V52.8809H4.83594ZM13.5566 57.6562V65H7.23828V62.6367H10.9199V58.1641C10.9199 57.2852 10.8613 56.6569 10.7441 56.2793C10.627 55.9082 10.4316 55.6445 10.1582 55.4883C9.88477 55.3255 9.48438 55.2441 8.95703 55.2441H7.79492V52.8809H9.45508C10.5749 52.8809 11.4115 53.0306 11.9648 53.3301C12.5182 53.6296 12.9219 54.1211 13.1758 54.8047C13.4297 55.4883 13.5566 56.4388 13.5566 57.6562ZM19.9824 63.0664C19.722 63.737 19.3216 64.2285 18.7812 64.541C18.2409 64.847 17.4564 65 16.4277 65H15.7637V62.6367H15.9297C16.3789 62.6367 16.737 62.5521 17.0039 62.3828C17.2643 62.2135 17.4499 61.9564 17.5605 61.6113C17.6712 61.2598 17.7266 60.7292 17.7266 60.0195V55.2441H15.8711V52.8809H22.668C24.543 52.8809 25.8874 53.278 26.7012 54.0723C27.5215 54.86 27.9316 56.1686 27.9316 57.998V65H25.2852V58.0371C25.2852 56.9954 25.0736 56.2695 24.6504 55.8594C24.2272 55.4492 23.5143 55.2441 22.5117 55.2441H20.3633V60.3613C20.3633 61.4876 20.2363 62.3893 19.9824 63.0664ZM33.4492 52.8809V59.3164H30.8125V52.8809H33.4492ZM39.543 61.4648L38.9375 65H36.2031L37.0234 60.957C37.2578 59.8372 37.4727 59.0397 37.668 58.5645C37.8633 58.0827 38.1042 57.7018 38.3906 57.4219C38.6836 57.1354 39.0872 56.8815 39.6016 56.6602L36.7793 52.8809H39.9824L43.9375 58.3594C44.3477 57.9883 44.6602 57.5521 44.875 57.0508C45.0898 56.5495 45.2428 55.8724 45.334 55.0195L45.5391 52.8809H48.2344L48 55.1953C47.9284 55.8529 47.7982 56.4355 47.6094 56.9434C47.4792 57.2884 47.3197 57.6139 47.1309 57.9199C46.9421 58.2194 46.6947 58.5384 46.3887 58.877C46.0892 59.209 45.6921 59.5964 45.1973 60.0391L48.8398 65H45.6562L40.7832 58.2422C40.4382 58.444 40.1908 58.737 40.041 59.1211C39.9694 59.3164 39.8913 59.6094 39.8066 60C39.722 60.3906 39.6341 60.8789 39.543 61.4648ZM58.7422 52.8809V65H56.1055V52.8809H58.7422ZM70.3633 57.9785V65H67.7168V57.959C67.7168 56.9499 67.4987 56.2467 67.0625 55.8496C66.6328 55.446 65.9069 55.2441 64.8848 55.2441H60.8223V52.8809H65.041C66.3236 52.8809 67.3522 53.0534 68.127 53.3984C68.9082 53.737 69.4746 54.2806 69.8262 55.0293C70.1842 55.7715 70.3633 56.7546 70.3633 57.9785ZM84.0645 62.6367V65H72.7656V62.6367H80.1289V58.3203C80.1289 57.181 79.9141 56.3835 79.4844 55.9277C79.0612 55.472 78.3353 55.2441 77.3066 55.2441H73.2246V52.8809H77.3457C79.2467 52.8809 80.6237 53.278 81.4766 54.0723C82.3359 54.8665 82.7656 56.1686 82.7656 57.9785V62.6367H84.0645ZM93.7715 55.2441V65H91.1348V55.2441H84.5723V52.8809H95.2754V55.2441H93.7715Z" fill="#F0F7F7"/>
</svg>
