<svg width="86" height="86" viewBox="0 0 86 86" fill="none" xmlns="http://www.w3.org/2000/svg">
<g filter="url(#filter0_d_1596_5910)">
<rect x="8" y="4" width="70" height="70" rx="35" fill="#39B54A"/>
</g>
<path d="M38.5 36C40.1569 36 41.5 34.6569 41.5 33C41.5 31.3431 40.1569 30 38.5 30C36.8431 30 35.5 31.3431 35.5 33C35.5 34.6569 36.8431 36 38.5 36Z" stroke="white" stroke-width="1.5" stroke-linecap="round" stroke-linejoin="round"/>
<path d="M44.5 24H38.5C31 24 28 27 28 34.5V43.5C28 51 31 54 38.5 54H47.5C55 54 58 51 58 43.5V36" stroke="white" stroke-width="1.5" stroke-linecap="round" stroke-linejoin="round"/>
<path d="M48.625 28.5H56.875" stroke="white" stroke-width="1.5" stroke-linecap="round"/>
<path d="M52.75 32.625V24.375" stroke="white" stroke-width="1.5" stroke-linecap="round"/>
<path d="M29.005 49.4248L36.4 44.4598C37.585 43.6648 39.295 43.7548 40.36 44.6698L40.855 45.1048C42.025 46.1098 43.915 46.1098 45.085 45.1048L51.325 39.7498C52.495 38.7448 54.385 38.7448 55.555 39.7498L58 41.8498" stroke="white" stroke-width="1.5" stroke-linecap="round" stroke-linejoin="round"/>
<defs>
<filter id="filter0_d_1596_5910" x="0" y="0" width="86" height="86" filterUnits="userSpaceOnUse" color-interpolation-filters="sRGB">
<feFlood flood-opacity="0" result="BackgroundImageFix"/>
<feColorMatrix in="SourceAlpha" type="matrix" values="0 0 0 0 0 0 0 0 0 0 0 0 0 0 0 0 0 0 127 0" result="hardAlpha"/>
<feOffset dy="4"/>
<feGaussianBlur stdDeviation="4"/>
<feComposite in2="hardAlpha" operator="out"/>
<feColorMatrix type="matrix" values="0 0 0 0 0.223529 0 0 0 0 0.709804 0 0 0 0 0.290196 0 0 0 0.3 0"/>
<feBlend mode="normal" in2="BackgroundImageFix" result="effect1_dropShadow_1596_5910"/>
<feBlend mode="normal" in="SourceGraphic" in2="effect1_dropShadow_1596_5910" result="shape"/>
</filter>
</defs>
</svg>
